HIERARCHY
ROOT hips
{
	OFFSET -0.003675 0.299928 -0.021708
	CHANNELS 6 Xposition Yposition Zposition Xrotation Yrotation Zrotation
	JOINT LowerBack
	{
		OFFSET 0.000919 0.177588 0.009275
		CHANNELS 3 Xrotation Yrotation Zrotation
		JOINT spine
		{
			OFFSET 0.000919 0.177588 0.009275
			CHANNELS 3 Xrotation Yrotation Zrotation
			JOINT chest
			{
				OFFSET 0.000456 0.100015 0.004638
				CHANNELS 3 Xrotation Yrotation Zrotation
				JOINT neck
				{
					OFFSET 0.000456 0.100015 0.004638
					CHANNELS 3 Xrotation Yrotation Zrotation
					JOINT head
					{
						OFFSET 0.000924 0.155147 0.009274
						CHANNELS 6 Xposition Yposition Zposition Xrotation Yrotation Zrotation
						End Site
						{
							OFFSET 0.000000 0.153400 0.000000
						}
					}
				}
				JOINT shoulder.L
				{
					OFFSET 0.019937 0.078966 0.057518
					CHANNELS 6 Xposition Yposition Zposition Yrotation Xrotation Zrotation
					JOINT upper_arm.L
					{
						OFFSET 0.177024 -0.020465 -0.095062
						CHANNELS 6 Xposition Yposition Zposition Xrotation Yrotation Zrotation
						JOINT forearm.L
						{
							OFFSET 0.247100 -0.135500 -0.061800
							CHANNELS 3 Xrotation Yrotation Zrotation
							JOINT hand.L
							{
								OFFSET 0.217000 -0.143000 0.039300
								CHANNELS 3 Xrotation Yrotation Zrotation
								JOINT palm.01.L
								{
									OFFSET 0.021770 -0.038291 0.012954
									CHANNELS 6 Xposition Yposition Zposition Yrotation Xrotation Zrotation
									JOINT f_index.01.L
									{
										OFFSET 0.053215 -0.044137 0.008236
										CHANNELS 3 Xrotation Yrotation Zrotation
										JOINT f_index.02.L
										{
											OFFSET 0.036108 -0.024723 -0.010656
											CHANNELS 3 Xrotation Yrotation Zrotation
											JOINT f_index.03.L
											{
												OFFSET 0.021342 -0.014948 -0.010846
												CHANNELS 3 Xrotation Yrotation Zrotation
												End Site
												{
													OFFSET 0.015600 -0.009860 -0.013421
												}
											}
										}
									}
									JOINT thumb.01.L
									{
										OFFSET -0.009090 -0.002348 -0.024223
										CHANNELS 6 Xposition Yposition Zposition Xrotation Yrotation Zrotation
										JOINT thumb.02.L
										{
											OFFSET 0.019713 -0.035076 -0.011120
											CHANNELS 3 Xrotation Yrotation Zrotation
											JOINT thumb.03.L
											{
												OFFSET 0.024877 -0.021748 -0.005176
												CHANNELS 3 Xrotation Yrotation Zrotation
												End Site
												{
													OFFSET 0.016125 -0.013029 -0.001569
												}
											}
										}
									}
								}
								JOINT palm.02.L
								{
									OFFSET 0.032823 -0.025104 0.012281
									CHANNELS 6 Xposition Yposition Zposition Yrotation Xrotation Zrotation
									JOINT f_middle.01.L
									{
										OFFSET 0.055723 -0.038469 0.008037
										CHANNELS 3 Xrotation Yrotation Zrotation
										JOINT f_middle.02.L
										{
											OFFSET 0.038167 -0.027473 -0.015582
											CHANNELS 3 Xrotation Yrotation Zrotation
											JOINT f_middle.03.L
											{
												OFFSET 0.021707 -0.016587 -0.017037
												CHANNELS 3 Xrotation Yrotation Zrotation
												End Site
												{
													OFFSET 0.014112 -0.010584 -0.014294
												}
											}
										}
									}
								}
								JOINT palm.03.L
								{
									OFFSET 0.039230 -0.011402 0.008390
									CHANNELS 6 Xposition Yposition Zposition Yrotation Xrotation Zrotation
									JOINT f_ring.01.L
									{
										OFFSET 0.061796 -0.031470 0.007910
										CHANNELS 3 Xrotation Yrotation Zrotation
										JOINT f_ring.02.L
										{
											OFFSET 0.033092 -0.023401 -0.019127
											CHANNELS 3 Xrotation Yrotation Zrotation
											JOINT f_ring.03.L
											{
												OFFSET 0.021392 -0.015362 -0.017824
												CHANNELS 3 Xrotation Yrotation Zrotation
												End Site
												{
													OFFSET 0.008670 -0.007297 -0.014686
												}
											}
										}
									}
								}
								JOINT palm.04.L
								{
									OFFSET 0.043417 0.002450 0.002889
									CHANNELS 6 Xposition Yposition Zposition Yrotation Xrotation Zrotation
									JOINT f_pinky.01.L
									{
										OFFSET 0.069986 -0.026156 0.003627
										CHANNELS 3 Xrotation Yrotation Zrotation
										JOINT f_pinky.02.L
										{
											OFFSET 0.018520 -0.012813 -0.016429
											CHANNELS 3 Xrotation Yrotation Zrotation
											JOINT f_pinky.03.L
											{
												OFFSET 0.013822 -0.009796 -0.014947
												CHANNELS 3 Xrotation Yrotation Zrotation
												End Site
												{
													OFFSET 0.007238 -0.006103 -0.011657
												}
											}
										}
									}
								}
							}
						}
					}
				}
				JOINT shoulder.R
				{
					OFFSET -0.016662 0.078957 0.057696
					CHANNELS 6 Xposition Yposition Zposition Yrotation Xrotation Zrotation
					JOINT upper_arm.R
					{
						OFFSET -0.176972 -0.020537 -0.095144
						CHANNELS 6 Xposition Yposition Zposition Xrotation Yrotation Zrotation
						JOINT forearm.R
						{
							OFFSET -0.247100 -0.135500 -0.061800
							CHANNELS 3 Xrotation Yrotation Zrotation
							JOINT hand.R
							{
								OFFSET -0.217000 -0.143000 0.039300
								CHANNELS 3 Xrotation Yrotation Zrotation
								JOINT palm.01.R
								{
									OFFSET -0.021773 -0.038278 0.012988
									CHANNELS 6 Xposition Yposition Zposition Yrotation Xrotation Zrotation
									JOINT f_index.01.R
									{
										OFFSET -0.053212 -0.044139 0.008249
										CHANNELS 3 Xrotation Yrotation Zrotation
										JOINT f_index.02.R
										{
											OFFSET -0.036049 -0.024835 -0.010634
											CHANNELS 3 Xrotation Yrotation Zrotation
											JOINT f_index.03.R
											{
												OFFSET -0.021371 -0.014881 -0.010866
												CHANNELS 3 Xrotation Yrotation Zrotation
												End Site
												{
													OFFSET -0.015584 -0.009883 -0.013422
												}
											}
										}
									}
									JOINT thumb.01.R
									{
										OFFSET 0.009113 -0.002381 -0.024211
										CHANNELS 6 Xposition Yposition Zposition Xrotation Yrotation Zrotation
										JOINT thumb.02.R
										{
											OFFSET -0.019694 -0.035097 -0.011088
											CHANNELS 3 Xrotation Yrotation Zrotation
											JOINT thumb.03.R
											{
												OFFSET -0.024867 -0.021762 -0.005168
												CHANNELS 3 Xrotation Yrotation Zrotation
												End Site
												{
													OFFSET -0.016120 -0.013036 -0.001565
												}
											}
										}
									}
								}
								JOINT palm.02.R
								{
									OFFSET -0.032828 -0.025095 0.012286
									CHANNELS 6 Xposition Yposition Zposition Yrotation Xrotation Zrotation
									JOINT f_middle.01.R
									{
										OFFSET -0.055721 -0.038472 0.008040
										CHANNELS 3 Xrotation Yrotation Zrotation
										JOINT f_middle.02.R
										{
											OFFSET -0.038101 -0.027593 -0.015557
											CHANNELS 3 Xrotation Yrotation Zrotation
											JOINT f_middle.03.R
											{
												OFFSET -0.021730 -0.016530 -0.017054
												CHANNELS 3 Xrotation Yrotation Zrotation
												End Site
												{
													OFFSET -0.014096 -0.010608 -0.014293
												}
											}
										}
									}
								}
								JOINT palm.03.R
								{
									OFFSET -0.039192 -0.011488 0.008390
									CHANNELS 6 Xposition Yposition Zposition Yrotation Xrotation Zrotation
									JOINT f_ring.01.R
									{
										OFFSET -0.061839 -0.031387 0.007876
										CHANNELS 3 Xrotation Yrotation Zrotation
										JOINT f_ring.02.R
										{
											OFFSET -0.033068 -0.023437 -0.019125
											CHANNELS 3 Xrotation Yrotation Zrotation
											JOINT f_ring.03.R
											{
												OFFSET -0.021371 -0.015393 -0.017822
												CHANNELS 3 Xrotation Yrotation Zrotation
												End Site
												{
													OFFSET -0.008654 -0.007321 -0.014684
												}
											}
										}
									}
								}
								JOINT palm.04.R
								{
									OFFSET -0.043421 0.002443 0.002845
									CHANNELS 6 Xposition Yposition Zposition Yrotation Xrotation Zrotation
									JOINT f_pinky.01.R
									{
										OFFSET -0.069983 -0.026169 0.003599
										CHANNELS 3 Xrotation Yrotation Zrotation
										JOINT f_pinky.02.R
										{
											OFFSET -0.018501 -0.012842 -0.016428
											CHANNELS 3 Xrotation Yrotation Zrotation
											JOINT f_pinky.03.R
											{
												OFFSET -0.013806 -0.009821 -0.014946
												CHANNELS 3 Xrotation Yrotation Zrotation
												End Site
												{
													OFFSET -0.007226 -0.006121 -0.011655
												}
											}
										}
									}
								}
							}
						}
					}
				}
			}
		}
	}
	JOINT pelvis.L
	{
		OFFSET 0.000000 0.000000 0.000000
		CHANNELS 6 Xposition Yposition Zposition Xrotation Yrotation Zrotation
		JOINT thigh.L
		{
			OFFSET 0.101675 0.001054 -0.000000
			CHANNELS 3 Xrotation Yrotation Zrotation
			JOINT shin.L
			{
				OFFSET 0.000000 -0.534800 0.041000
				CHANNELS 3 Xrotation Yrotation Zrotation
				JOINT foot.L
				{
					OFFSET 0.000000 -0.452000 -0.044800
					CHANNELS 3 Xrotation Yrotation Zrotation
					JOINT toe.L
					{
						OFFSET -0.000000 -0.068500 0.109600
						CHANNELS 3 Xrotation Yrotation Zrotation
						End Site
						{
							OFFSET -0.000000 0.000000 0.067200
						}
					}
				}
				JOINT heel.L
				{
					OFFSET 0.000000 -0.452000 -0.044800
					CHANNELS 3 Xrotation Yrotation Zrotation
					JOINT heel.02.L
					{
						OFFSET -0.038000 -0.085200 0.016200
						CHANNELS 6 Xposition Yposition Zposition Xrotation Yrotation Zrotation
						End Site
						{
							OFFSET 0.080000 -0.000000 0.000000
						}
					}
				}
			}
		}
	}
	JOINT pelvis.R
	{
		OFFSET 0.000000 0.000000 0.000000
		CHANNELS 6 Xposition Yposition Zposition Xrotation Yrotation Zrotation
		JOINT thigh.R
		{
			OFFSET -0.094325 0.001054 0.000000
			CHANNELS 3 Xrotation Yrotation Zrotation
			JOINT shin.R
			{
				OFFSET 0.000000 -0.534800 0.041000
				CHANNELS 3 Xrotation Yrotation Zrotation
				JOINT foot.R
				{
					OFFSET 0.000000 -0.452000 -0.044800
					CHANNELS 3 Xrotation Yrotation Zrotation
					JOINT toe.R
					{
						OFFSET -0.000000 -0.068500 0.109600
						CHANNELS 3 Xrotation Yrotation Zrotation
						End Site
						{
							OFFSET -0.000000 0.000000 0.067200
						}
					}
				}
				JOINT heel.R
				{
					OFFSET 0.000000 -0.452000 -0.044800
					CHANNELS 3 Xrotation Yrotation Zrotation
					JOINT heel.02.R
					{
						OFFSET 0.038000 -0.085200 0.016200
						CHANNELS 6 Xposition Yposition Zposition Xrotation Yrotation Zrotation
						End Site
						{
							OFFSET -0.080000 0.000000 -0.000000
						}
					}
				}
			}
		}
	}
}
MOTION
Frames: 4
Frame Time: 0.041667
-0.005133 0.198944 -0.003891 77.357234 2.341852 58.003817 0.000000 0.000000 0.000004 -0.000000 -0.000000 0.000003 -0.000001 -0.000001 0.000002 -0.000001 0.000000 -0.000000 0.000924 0.155148 0.009274 -30.688634 0.122734 -8.886646 0.019937 0.078966 0.057518 35.088014 9.202240 26.685554 0.177025 -0.020465 -0.095062 -48.079512 26.932913 -73.172684 -7.548111 -9.348266 -5.831013 0.000004 -0.000000 0.000005 0.021770 -0.038291 0.012954 0.000003 0.000002 0.000001 -0.000003 -0.000000 0.000005 0.000002 -0.000000 0.000003 -0.000000 -0.000000 0.000002 -0.009090 -0.002348 -0.024223 -0.000001 0.000001 0.000003 -0.000000 0.000001 0.000001 0.000000 -0.000001 0.000003 0.032823 -0.025104 0.012281 0.000004 0.000003 0.000005 0.000001 0.000003 -0.000002 -0.000003 0.000001 0.000000 0.000000 0.000003 0.000001 0.039230 -0.011402 0.008390 0.000004 0.000001 0.000004 0.000000 0.000001 -0.000000 0.000003 0.000002 -0.000004 0.000003 -0.000001 0.000003 0.043417 0.002450 0.002889 0.000002 0.000003 -0.000005 -0.000001 -0.000006 -0.000000 0.000003 0.000004 -0.000001 -0.000000 0.000005 -0.000000 -0.016662 0.078957 0.057696 41.359937 12.083423 -62.423927 -0.176972 -0.020537 -0.095144 -38.980187 19.803423 17.653565 -20.537651 -14.547862 -131.992668 0.000002 0.000001 0.000000 -0.021773 -0.038278 0.012988 0.000001 0.000001 -0.000002 -0.000001 -0.000001 0.000002 -0.000002 0.000001 -0.000004 -0.000003 0.000000 0.000004 0.009114 -0.002381 -0.024212 -0.000000 -0.000004 0.000000 -0.000001 -0.000003 0.000000 0.000000 -0.000003 0.000003 -0.032828 -0.025095 0.012286 0.000002 -0.000000 -0.000001 -0.000003 -0.000002 0.000000 0.000001 0.000002 -0.000002 -0.000003 0.000003 -0.000004 -0.039192 -0.011488 0.008390 0.000001 0.000005 -0.000000 0.000003 0.000001 -0.000003 0.000001 0.000004 0.000002 -0.000004 0.000005 -0.000004 -0.043421 0.002443 0.002845 0.000000 0.000003 -0.000001 -0.000004 0.000003 -0.000001 0.000001 -0.000001 0.000002 -0.000004 -0.000004 0.000002 0.000000 0.000000 0.000000 -1.978336 0.995004 -12.261779 26.447046 -1.176515 -16.901522 -1.445858 -0.910175 9.225597 0.000005 0.000003 0.000002 -0.000001 -0.000002 -0.000002 0.000000 0.000000 0.000001 -0.038000 -0.085200 0.016200 0.000003 -0.000001 -0.000000 -0.000000 0.000000 0.000000 -1.900925 0.979017 -11.028928 5.229564 -0.903011 -11.829910 -15.549767 -0.021475 0.217067 0.000000 0.000001 -0.000002 0.000000 0.000002 -0.000002 0.000007 0.000002 -0.000005 0.038000 -0.085200 0.016200 -0.000001 0.000001 0.000002 
-0.005412 0.199781 -0.003767 75.249178 2.372078 58.113531 0.000001 0.000000 -0.000001 -0.000000 -0.000002 0.000000 -0.000001 -0.000000 -0.000004 -0.000000 -0.000001 -0.000002 0.000924 0.155147 0.009274 -29.591392 0.116457 -9.762959 0.019937 0.078966 0.057518 36.135809 9.430450 25.978753 0.177024 -0.020465 -0.095062 -47.991983 28.216227 -75.035987 -6.535345 -8.220074 -5.756810 0.000001 -0.000000 -0.000001 0.021770 -0.038291 0.012954 -0.000002 0.000002 0.000003 0.000003 0.000002 0.000007 0.000002 -0.000001 0.000005 0.000001 0.000003 -0.000000 -0.009090 -0.002348 -0.024224 0.000003 0.000001 0.000004 0.000002 0.000002 0.000001 0.000001 0.000002 0.000003 0.032823 -0.025104 0.012281 -0.000003 0.000003 0.000005 -0.000000 0.000001 -0.000010 -0.000003 -0.000002 -0.000000 -0.000000 -0.000000 0.000000 0.039230 -0.011402 0.008390 -0.000002 0.000002 0.000004 -0.000001 0.000002 -0.000005 -0.000002 0.000003 0.000001 -0.000000 -0.000001 0.000001 0.043417 0.002450 0.002889 -0.000002 0.000003 -0.000002 -0.000001 -0.000008 -0.000000 -0.000001 0.000002 0.000000 -0.000002 -0.000001 0.000001 -0.016662 0.078957 0.057696 43.926442 12.341449 -60.402935 -0.176972 -0.020537 -0.095144 -45.842406 14.035947 25.845265 -17.559098 -16.659373 -116.667909 0.000001 0.000003 -0.000002 -0.021773 -0.038278 0.012988 -0.000003 0.000002 -0.000003 -0.000002 0.000000 0.000006 -0.000002 0.000003 -0.000006 0.000000 0.000002 0.000002 0.009113 -0.002381 -0.024211 -0.000001 -0.000002 0.000002 0.000002 -0.000001 -0.000003 0.000000 0.000000 0.000003 -0.032828 -0.025095 0.012286 -0.000000 0.000002 -0.000001 -0.000002 0.000003 0.000002 0.000002 -0.000001 -0.000001 -0.000001 0.000006 -0.000005 -0.039192 -0.011488 0.008390 0.000000 0.000004 -0.000002 -0.000000 0.000000 -0.000002 0.000004 0.000001 0.000002 -0.000000 0.000001 0.000000 -0.043421 0.002442 0.002845 0.000000 0.000003 0.000000 -0.000009 0.000001 0.000001 -0.000004 -0.000001 -0.000002 -0.000001 0.000003 0.000001 -0.000000 0.000000 -0.000000 -1.973281 0.947980 -11.753197 28.669132 -1.041555 -15.184207 -4.892445 -0.537583 5.434156 -0.000002 0.000001 0.000004 -0.000002 -0.000000 0.000003 0.000002 -0.000004 0.000001 -0.038000 -0.085200 0.016200 -0.000002 0.000002 -0.000000 -0.000000 0.000000 -0.000000 -1.897731 0.933082 -10.520243 8.208501 -0.924595 -11.891119 -18.181091 -0.124152 1.253110 -0.000007 -0.000001 0.000001 0.000001 0.000001 0.000001 0.000002 -0.000003 0.000005 0.038000 -0.085200 0.016200 -0.000003 0.000000 0.000002 
-0.005138 0.198637 -0.003915 74.221439 1.652734 56.939534 -0.000000 -0.000000 -0.000000 -0.000001 0.000001 0.000003 0.000000 -0.000002 0.000004 0.000001 -0.000003 0.000007 0.000924 0.155148 0.009274 -25.831473 0.098803 -8.859868 0.019937 0.078966 0.057518 37.419615 10.063502 26.414211 0.177025 -0.020465 -0.095062 -45.871373 29.626786 -78.948804 -10.804377 -12.116011 -8.071141 0.000001 -0.000001 0.000005 0.021770 -0.038291 0.012954 -0.000001 -0.000003 0.000001 -0.000003 -0.000002 0.000005 -0.000003 0.000001 0.000010 0.000001 0.000003 0.000000 -0.009090 -0.002348 -0.024223 0.000000 -0.000000 0.000001 -0.000001 0.000001 -0.000000 -0.000001 -0.000004 -0.000008 0.032823 -0.025104 0.012281 -0.000000 -0.000001 0.000002 0.000001 -0.000002 -0.000002 -0.000002 -0.000003 0.000001 -0.000002 -0.000002 0.000006 0.039230 -0.011402 0.008390 -0.000001 0.000001 0.000006 0.000003 0.000003 -0.000000 -0.000001 0.000001 0.000003 -0.000000 -0.000005 0.000005 0.043417 0.002450 0.002889 -0.000002 -0.000000 -0.000000 -0.000003 -0.000001 -0.000002 -0.000003 0.000003 -0.000000 -0.000002 -0.000002 -0.000002 -0.016662 0.078957 0.057696 43.041530 12.454361 -61.582454 -0.176972 -0.020537 -0.095144 -43.308556 6.128855 30.624277 -4.997054 -14.440652 -85.066140 0.000003 -0.000000 0.000004 -0.021773 -0.038278 0.012988 -0.000002 0.000000 -0.000007 -0.000003 0.000005 0.000001 -0.000002 0.000001 -0.000009 -0.000000 -0.000001 0.000004 0.009113 -0.002381 -0.024211 -0.000000 -0.000002 0.000002 -0.000000 -0.000001 0.000002 -0.000001 0.000001 0.000001 -0.032828 -0.025095 0.012286 0.000000 -0.000000 -0.000001 -0.000000 0.000002 0.000004 -0.000000 -0.000003 0.000001 -0.000004 -0.000001 -0.000004 -0.039192 -0.011488 0.008390 0.000000 0.000001 -0.000004 -0.000001 0.000004 -0.000002 0.000003 -0.000001 -0.000002 0.000001 0.000000 -0.000003 -0.043421 0.002443 0.002844 -0.000002 0.000000 0.000000 -0.000001 0.000009 -0.000003 -0.000002 -0.000002 -0.000002 -0.000001 -0.000005 -0.000000 0.000000 0.000000 -0.000000 -1.952023 0.933405 -11.637880 30.413480 -0.953749 -14.077539 -5.209859 -0.580365 5.867949 -0.000002 0.000001 0.000003 0.000001 0.000001 0.000005 0.000002 -0.000000 0.000007 -0.038000 -0.085200 0.016200 -0.000000 0.000001 0.000003 -0.000000 0.000000 0.000000 -1.877611 0.918875 -10.404893 10.166053 -0.843303 -10.667321 -18.892484 0.007074 -0.070959 -0.000002 -0.000001 -0.000001 -0.000001 0.000001 -0.000000 0.000000 -0.000003 -0.000001 0.038000 -0.085200 0.016200 -0.000000 -0.000002 0.000002 
-0.005380 0.199144 -0.003776 74.871837 0.880283 57.243440 0.000000 0.000001 0.000000 0.000000 0.000001 -0.000000 -0.000001 0.000001 0.000003 0.000001 0.000000 0.000002 0.000924 0.155148 0.009274 -25.099096 0.092129 -12.478045 0.019937 0.078966 0.057518 40.638051 10.886220 24.978277 0.177024 -0.020465 -0.095062 -47.991334 29.123643 -76.501814 -11.860429 -11.414448 -13.989229 -0.000001 -0.000001 -0.000000 0.021770 -0.038291 0.012954 0.000002 0.000001 0.000010 -0.000001 0.000003 -0.000002 0.000001 -0.000001 0.000005 -0.000001 0.000004 -0.000000 -0.009090 -0.002348 -0.024223 -0.000002 0.000001 0.000003 -0.000000 -0.000002 0.000001 -0.000003 0.000003 -0.000006 0.032823 -0.025104 0.012281 -0.000002 -0.000000 0.000002 -0.000001 -0.000001 -0.000005 -0.000007 0.000000 0.000001 -0.000003 -0.000003 -0.000001 0.039230 -0.011402 0.008390 -0.000000 0.000000 0.000008 0.000001 0.000000 -0.000002 0.000005 0.000002 0.000005 -0.000003 -0.000002 0.000001 0.043417 0.002450 0.002889 -0.000001 0.000002 0.000003 0.000001 -0.000004 -0.000004 -0.000001 -0.000000 -0.000001 -0.000002 0.000003 -0.000000 -0.016662 0.078957 0.057696 44.560793 13.278226 -64.157838 -0.176972 -0.020537 -0.095144 -33.179628 1.638237 29.809032 7.503815 7.796459 -61.342912 -0.000001 -0.000003 0.000003 -0.021773 -0.038278 0.012988 -0.000003 0.000002 -0.000002 0.000001 -0.000003 0.000000 -0.000002 0.000003 -0.000007 -0.000000 0.000004 0.000001 0.009113 -0.002381 -0.024212 0.000001 -0.000000 0.000001 0.000001 -0.000003 0.000002 0.000000 0.000003 -0.000006 -0.032828 -0.025095 0.012286 -0.000002 0.000002 -0.000001 -0.000002 0.000005 -0.000004 -0.000000 -0.000000 -0.000001 -0.000001 -0.000003 -0.000004 -0.039192 -0.011488 0.008390 -0.000004 0.000004 0.000001 0.000000 -0.000001 -0.000002 -0.000001 0.000001 -0.000002 -0.000001 0.000001 -0.000001 -0.043421 0.002443 0.002844 -0.000006 0.000002 0.000000 -0.000002 0.000002 -0.000001 -0.000002 -0.000003 0.000003 0.000001 -0.000002 0.000002 0.000000 0.000000 0.000000 -1.968758 0.925870 -11.517716 29.805388 -0.997501 -14.635314 -4.540312 -0.670252 6.780487 -0.000002 -0.000001 0.000001 0.000003 -0.000001 -0.000004 -0.000002 -0.000003 0.000001 -0.038000 -0.085200 0.016200 0.000001 0.000001 0.000001 -0.000000 0.000000 0.000000 -1.894137 0.911469 -10.284728 10.059924 -0.882422 -11.194123 -17.481492 -0.126583 1.277656 0.000002 -0.000000 0.000001 0.000004 -0.000000 -0.000001 0.000002 -0.000002 0.000002 0.038000 -0.085200 0.016200 0.000002 0.000001 0.000002 
